<svg xmlns="http://www.w3.org/2000/svg" xml:space="preserve" id="camera" x="0" y="0" version="1.1" viewBox="0 0 50 50">
  <path d="M35.628 19.066l-.713-4.242a1 1 0 0 0-.986-.834H20.93a1 1 0 0 0-.986.835l-.711 4.241h-6.801a1 1 0 0 0-1 1V36.99a1 1 0 0 0 1 1h30a1 1 0 0 0 1-1V20.066a1 1 0 0 0-1-1h-6.804zm5.804 16.924h-28V21.066h6.647a1 1 0 0 0 .986-.835l.711-4.241h11.307l.713 4.242a1 1 0 0 0 .986.834h6.65V35.99z"></path>
  <path d="M27.432 21.384c-3.309 0-6 2.671-6 5.953s2.691 5.953 6 5.953 6-2.671 6-5.953-2.691-5.953-6-5.953zm0 9.906c-2.206 0-4-1.773-4-3.953s1.794-3.953 4-3.953 4 1.773 4 3.953-1.794 3.953-4 3.953z"></path>
</svg>
