<svg xmlns="http://www.w3.org/2000/svg" width="1887.248" height="1414.732" enable-background="new 0 0 2000 2000" viewBox="56.376 430.114 1887.248 1414.732"><g opacity=".41"><path fill="#abe9ff" d="M142.16,932.37L142.16,932.37c0-101.28,88.06-183.38,196.68-183.38h41.03    c-19.19-15.49-31.35-38.35-31.35-63.87v0c0-46.65,40.56-84.47,90.59-84.47h136.55c-13.81-11.08-22.59-27.47-22.59-45.79    c0-33.38,29.02-60.44,64.82-60.44h342.87c35.8,0,64.82,27.06,64.82,60.44c0,33.38-29.02,60.44-64.82,60.44H832.38    c-23.9,15.21-39.6,40.8-39.6,69.82v0c0,25.52,12.16,48.38,31.35,63.87h211.14c108.62,0,196.68,82.1,196.68,183.38l0,0    c0,101.28-88.06,183.38-196.68,183.38h279.71c50.03,0,90.59,37.82,90.59,84.47c0,46.65-40.56,84.47-90.59,84.47h113.97    c124.52,0,227.88,84.17,248.4,194.8h39.91c77.64,0,140.58,58.68,140.58,131.07v13.28c0,72.39-62.94,131.07-140.58,131.07h-288.31    H485.4h-91.07c-139.27,0-252.17-105.26-252.17-235.11v0c0-129.85,112.9-235.11,252.17-235.11h441.46    c-50.03,0-90.59-37.82-90.59-84.47c0-46.65,40.56-84.47,90.59-84.47H338.84C230.22,1115.75,142.16,1033.65,142.16,932.37z"/><ellipse cx="1144.48" cy="554.86" fill="#abe9ff" rx="58.89" ry="60.44"/></g><path fill="#231f20" d="M1857.84,1753.58c0,22.45-392.68,26.96-866.46,26.96c-473.77,0-849.22-4.51-849.22-26.96   c0-22.45,383.91-21.75,857.68-21.75C1473.61,1731.83,1857.84,1731.13,1857.84,1753.58z" opacity=".15"/><path fill="#92bff7" d="M706.98,1522.57c0,0,17.96,50.97-28.22,180.71h300.21c0,0-53.88-50.97-41.05-180.71H706.98z"/><path fill="#5f9bdd" d="M936.18,1573.36c-0.54-15.4-0.1-32.26,1.73-50.79H706.98c0,0,5.4,15.43,2.63,50.79H936.18z"/><path fill="#92bff7" d="M1360.68,1542.37H276.51c-15.09,0-27.32-12.23-27.32-27.32V873.47c0-13.18,10.68-23.86,23.86-23.86h1091.09     c13.18,0,23.86,10.68,23.86,23.86v641.58C1388.01,1530.14,1375.77,1542.37,1360.68,1542.37z"/><path fill="#426388" d="M259.11,1525.21V882.06c0-12.77,11.02-23.13,24.62-23.13h1089.58c4.24,0,8.16,1.1,11.65,2.87     c-4.16-7.23-12.21-12.19-21.57-12.19H273.8c-13.6,0-24.62,10.36-24.62,23.13v643.15c0,9.71,5.58,18.17,13.86,22.78     C260.56,1534.72,259.11,1530.13,259.11,1525.21z"/><path fill="#29478c" d="M1337.99,1453.51H299.2c-0.7,0-1.27-0.57-1.27-1.27V891.33c0-0.7,0.57-1.28,1.28-1.28h1038.79     c0.7,0,1.28,0.57,1.28,1.28v560.91C1339.27,1452.94,1338.69,1453.51,1337.99,1453.51z"/><polygon fill="#83b6ed" points="526.09 1691.94 501.71 1747.86 1122.65 1747.86 1098.27 1691.94"/><ellipse cx="828.86" cy="1496.46" fill="#5f9bdd" rx="21.73" ry="22.03"/><path fill="#fff" d="M505.14,1412.87H361.98c-4.01,0-7.26-3.25-7.26-7.26v-463.9c0-4.01,3.25-7.26,7.26-7.26h143.16     c4.01,0,7.26,3.25,7.26,7.26v463.9C512.4,1409.62,509.15,1412.87,505.14,1412.87z" opacity=".08"/><path fill="#fff" d="M439.76,976.7h-62.59c-1.39,0-2.52-1.13-2.52-2.52v-5.25c0-1.39,1.13-2.52,2.52-2.52h62.59       c1.39,0,2.52,1.13,2.52,2.52v5.25C442.28,975.57,441.15,976.7,439.76,976.7z"/><path fill="#fff" d="M473.36,1000.07h-96.19c-1.39,0-2.52-1.13-2.52-2.52v-5.25c0-1.39,1.13-2.52,2.52-2.52h96.19       c1.39,0,2.52,1.13,2.52,2.52v5.25C475.89,998.94,474.76,1000.07,473.36,1000.07z"/><path fill="#fff" d="M455.92,1023.44h-78.75c-1.39,0-2.52-1.13-2.52-2.52v-5.25c0-1.39,1.13-2.52,2.52-2.52h78.75       c1.39,0,2.52,1.13,2.52,2.52v5.25C458.44,1022.31,457.31,1023.44,455.92,1023.44z"/><path fill="#fff" d="M414.25,1046.8h-37.3c-1.27,0-2.3-1.03-2.3-2.3v-5.69c0-1.27,1.03-2.3,2.3-2.3h37.3       c1.27,0,2.3,1.03,2.3,2.3v5.69C416.55,1045.77,415.52,1046.8,414.25,1046.8z"/><path fill="#fff" d="M427.85,1070.17h-50.68c-1.39,0-2.52-1.13-2.52-2.52v-5.25c0-1.39,1.13-2.52,2.52-2.52h50.68       c1.39,0,2.52,1.13,2.52,2.52v5.25C430.37,1069.04,429.24,1070.17,427.85,1070.17z"/><path fill="#fff" d="M450.82,1093.53h-73.65c-1.39,0-2.52-1.13-2.52-2.52v-5.25c0-1.39,1.13-2.52,2.52-2.52h73.65       c1.39,0,2.52,1.13,2.52,2.52v5.25C453.34,1092.4,452.21,1093.53,450.82,1093.53z"/><path fill="#fff" d="M427.85,1116.9h-50.68c-1.39,0-2.52-1.13-2.52-2.52v-5.25c0-1.39,1.13-2.52,2.52-2.52h50.68       c1.39,0,2.52,1.13,2.52,2.52v5.25C430.37,1115.77,429.24,1116.9,427.85,1116.9z"/><path fill="#fff" d="M476.34,1140.26h-99.17c-1.39,0-2.52-1.13-2.52-2.52v-5.25c0-1.39,1.13-2.52,2.52-2.52h99.17       c1.39,0,2.52,1.13,2.52,2.52v5.25C478.86,1139.13,477.73,1140.26,476.34,1140.26z"/><path fill="#fff" d="M440.18,1163.63h-63.01c-1.39,0-2.52-1.13-2.52-2.52v-5.25c0-1.39,1.13-2.52,2.52-2.52h63.01       c1.39,0,2.52,1.13,2.52,2.52v5.25C442.71,1162.5,441.58,1163.63,440.18,1163.63z"/><path fill="#fff" d="M478.89,1187H377.17c-1.39,0-2.52-1.13-2.52-2.52v-5.25c0-1.39,1.13-2.52,2.52-2.52h101.72       c1.39,0,2.52,1.13,2.52,2.52v5.25C481.41,1185.87,480.28,1187,478.89,1187z"/><path fill="#fff" d="M446.56,1210.36h-69.39c-1.39,0-2.52-1.13-2.52-2.52v-5.25c0-1.39,1.13-2.52,2.52-2.52h69.39       c1.39,0,2.52,1.13,2.52,2.52v5.25C449.09,1209.23,447.96,1210.36,446.56,1210.36z"/><path fill="#fff" d="M416.52,1233.73h-39.51c-1.31,0-2.36-1.06-2.36-2.36v-5.57c0-1.31,1.06-2.37,2.37-2.37h39.51       c1.31,0,2.37,1.06,2.37,2.37v5.57C418.89,1232.67,417.83,1233.73,416.52,1233.73z"/><g><path fill="#fff" d="M715.01,977.35h-152.1c-1.41,0-2.56-1.15-2.56-2.56v-5.33c0-1.41,1.15-2.56,2.56-2.56h152.1     c1.41,0,2.56,1.15,2.56,2.56v5.33C717.57,976.2,716.42,977.35,715.01,977.35z"/><path fill="#fff" d="M656.93,997.85h-96.95c-1.42,0-2.56-1.15-2.56-2.56v-5.33c0-1.41,1.15-2.56,2.56-2.56h96.95     c1.41,0,2.56,1.15,2.56,2.56v5.33C659.49,996.71,658.35,997.85,656.93,997.85z"/><path fill="#fff" d="M703.28,1020.77h-96.95c-1.41,0-2.56-1.15-2.56-2.56v-5.33c0-1.41,1.15-2.56,2.56-2.56h96.95     c1.41,0,2.56,1.15,2.56,2.56v5.33C705.84,1019.63,704.69,1020.77,703.28,1020.77z"/><path fill="#fff" d="M781.3,1041.68H653.25c-1.41,0-2.56-1.15-2.56-2.56v-5.33c0-1.41,1.15-2.56,2.56-2.56H781.3     c1.42,0,2.56,1.15,2.56,2.56v5.33C783.86,1040.54,782.71,1041.68,781.3,1041.68z"/><path fill="#fff" d="M753.14,1062.59H651.49c-1.42,0-2.56-1.15-2.56-2.56v-5.33c0-1.41,1.15-2.56,2.56-2.56h101.65     c1.42,0,2.56,1.15,2.56,2.56v5.33C755.7,1061.44,754.56,1062.59,753.14,1062.59z"/><path fill="#fff" d="M714.72,1126.52H603.98c-1.41,0-2.56-1.15-2.56-2.56v-5.33c0-1.41,1.15-2.56,2.56-2.56h110.74     c1.41,0,2.56,1.15,2.56,2.56v5.33C717.28,1125.37,716.13,1126.52,714.72,1126.52z"/><path fill="#fff" d="M792.15,1169.95h-91.97c-1.41,0-2.56-1.15-2.56-2.56v-5.33c0-1.42,1.15-2.56,2.56-2.56h91.97     c1.41,0,2.56,1.15,2.56,2.56v5.33C794.71,1168.8,793.57,1169.95,792.15,1169.95z"/><path fill="#9d79b5" d="M846.81,1191.66H744.38c-1.41,0-2.56-1.15-2.56-2.56v-5.33c0-1.41,1.15-2.56,2.56-2.56h102.43     c1.41,0,2.56,1.15,2.56,2.56v5.33C849.37,1190.51,848.22,1191.66,846.81,1191.66z"/><path fill="#fff" d="M801.05,1235.08H698.62c-1.41,0-2.56-1.15-2.56-2.56v-5.33c0-1.41,1.15-2.56,2.56-2.56h102.43     c1.41,0,2.56,1.15,2.56,2.56v5.33C803.61,1233.94,802.46,1235.08,801.05,1235.08z"/><path fill="#fff" d="M775.43,1278.51H654.62c-1.41,0-2.56-1.15-2.56-2.56v-5.33c0-1.41,1.15-2.56,2.56-2.56h120.81     c1.41,0,2.56,1.15,2.56,2.56v5.33C777.99,1277.36,776.85,1278.51,775.43,1278.51z"/><path fill="#f48e8e" d="M919.75,1278.51H798.94c-1.41,0-2.56-1.15-2.56-2.56v-5.33c0-1.41,1.15-2.56,2.56-2.56h120.81     c1.41,0,2.56,1.15,2.56,2.56v5.33C922.31,1277.36,921.16,1278.51,919.75,1278.51z"/><path fill="#9d79b5" d="M1095.15,1278.51h-151.9c-1.41,0-2.56-1.15-2.56-2.56v-5.33c0-1.41,1.15-2.56,2.56-2.56h151.9     c1.42,0,2.56,1.15,2.56,2.56v5.33C1097.72,1277.36,1096.57,1278.51,1095.15,1278.51z"/><path fill="#fff" d="M876.63,1213.37H743.5c-1.41,0-2.56-1.15-2.56-2.56v-5.33c0-1.41,1.15-2.56,2.56-2.56h133.13     c1.41,0,2.56,1.15,2.56,2.56v5.33C879.19,1212.22,878.04,1213.37,876.63,1213.37z"/><path fill="#fff" d="M1242.99,1213.37H958.21c-1.42,0-2.56-1.15-2.56-2.56v-5.33c0-1.41,1.15-2.56,2.56-2.56h284.78     c1.41,0,2.56,1.15,2.56,2.56v5.33C1245.55,1212.22,1244.4,1213.37,1242.99,1213.37z"/><path fill="#9d79b5" d="M1133.09,1191.66h-102.43c-1.41,0-2.56-1.15-2.56-2.56v-5.33c0-1.41,1.15-2.56,2.56-2.56h102.43     c1.41,0,2.56,1.15,2.56,2.56v5.33C1135.65,1190.51,1134.51,1191.66,1133.09,1191.66z"/><path fill="#f48e8e" d="M1017.33,1191.66H868.69c-1.41,0-2.56-1.15-2.56-2.56v-5.33c0-1.42,1.15-2.56,2.56-2.56h148.63     c1.41,0,2.56,1.15,2.56,2.56v5.33C1019.89,1190.51,1018.74,1191.66,1017.33,1191.66z"/><path fill="#fff" d="M1045.58,1169.95h-91.97c-1.41,0-2.56-1.15-2.56-2.56v-5.33c0-1.41,1.15-2.56,2.56-2.56h91.97     c1.41,0,2.56,1.15,2.56,2.56v5.33C1048.14,1168.8,1047,1169.95,1045.58,1169.95z"/><path fill="#f48e8e" d="M923.27,1169.95H818.1c-1.41,0-2.56-1.15-2.56-2.56v-5.33c0-1.41,1.15-2.56,2.56-2.56h105.17     c1.41,0,2.56,1.15,2.56,2.56v5.33C925.83,1168.8,924.68,1169.95,923.27,1169.95z"/><path fill="#fff" d="M827.06,1148.23H652.08c-1.41,0-2.56-1.15-2.56-2.56v-5.33c0-1.41,1.15-2.56,2.56-2.56h174.98     c1.41,0,2.56,1.15,2.56,2.56v5.33C829.62,1147.09,828.47,1148.23,827.06,1148.23z"/><path fill="#1d9bc2" d="M900.39,1148.23h-45.92c-1.41,0-2.56-1.15-2.56-2.56v-5.33c0-1.41,1.15-2.56,2.56-2.56h45.92     c1.41,0,2.56,1.15,2.56,2.56v5.33C902.95,1147.09,901.8,1148.23,900.39,1148.23z"/><path fill="#fff" d="M720.29,1256.8h-65.27c-1.41,0-2.56-1.15-2.56-2.56v-5.33c0-1.42,1.15-2.56,2.56-2.56h65.27     c1.41,0,2.56,1.15,2.56,2.56v5.33C722.85,1255.65,721.7,1256.8,720.29,1256.8z"/><path fill="#fff" d="M775.43,1297.41h-76.81c-1.41,0-2.56-1.15-2.56-2.56v-5.33c0-1.41,1.15-2.56,2.56-2.56h76.81     c1.41,0,2.56,1.15,2.56,2.56v5.33C777.99,1296.26,776.85,1297.41,775.43,1297.41z"/><path fill="#fff" d="M727.33,1319.12h-72.7c-1.41,0-2.56-1.15-2.56-2.56v-5.33c0-1.42,1.15-2.56,2.56-2.56h72.7     c1.42,0,2.56,1.15,2.56,2.56v5.33C729.89,1317.97,728.74,1319.12,727.33,1319.12z"/><path fill="#fff" d="M724,1340.83h-72.7c-1.41,0-2.56-1.15-2.56-2.56v-5.33c0-1.41,1.15-2.56,2.56-2.56H724     c1.41,0,2.56,1.15,2.56,2.56v5.33C726.57,1339.69,725.42,1340.83,724,1340.83z"/><path fill="#fff" d="M804.77,1362.14H698.62c-1.41,0-2.56-1.15-2.56-2.56v-5.33c0-1.41,1.15-2.56,2.56-2.56h106.14     c1.41,0,2.56,1.15,2.56,2.56v5.33C807.33,1361,806.18,1362.14,804.77,1362.14z"/><path fill="#fff" d="M981.93,1383.45H698.62c-1.41,0-2.56-1.15-2.56-2.56v-5.33c0-1.41,1.15-2.56,2.56-2.56h283.31     c1.41,0,2.56,1.15,2.56,2.56v5.33C984.49,1382.31,983.35,1383.45,981.93,1383.45z"/><path fill="#f48e8e" d="M832.77,1362.14h139.19c1.41,0,2.56-1.15,2.56-2.56v-5.33c0-1.41-1.15-2.56-2.56-2.56H832.77     c-1.41,0-2.56,1.15-2.56,2.56v5.33C830.21,1361,831.35,1362.14,832.77,1362.14z"/><path fill="#fff" d="M1046.36,1383.45h196.63c1.41,0,2.56-1.15,2.56-2.56v-5.33c0-1.41-1.15-2.56-2.56-2.56h-196.63     c-1.41,0-2.56,1.15-2.56,2.56v5.33C1043.79,1382.31,1044.94,1383.45,1046.36,1383.45z"/><path fill="#fbf393" d="M995.27,1362.14h77.59c1.41,0,2.56-1.15,2.56-2.56v-5.33c0-1.41-1.15-2.56-2.56-2.56h-77.59     c-1.42,0-2.56,1.15-2.56,2.56v5.33C992.71,1361,993.85,1362.14,995.27,1362.14z"/><path fill="#f48e8e" d="M876.92,1340.83H752.4c-1.41,0-2.56-1.15-2.56-2.56v-5.33c0-1.41,1.15-2.56,2.56-2.56h124.52     c1.42,0,2.56,1.15,2.56,2.56v5.33C879.48,1339.69,878.34,1340.83,876.92,1340.83z"/><path fill="#2bb99b" d="M990.15,1340.83h-92.26c-1.42,0-2.56-1.15-2.56-2.56v-5.33c0-1.41,1.15-2.56,2.56-2.56h92.26     c1.41,0,2.56,1.15,2.56,2.56v5.33C992.71,1339.69,991.56,1340.83,990.15,1340.83z"/><path fill="#1d9bc2" d="M1064.2,1340.83h-40.82c-1.34,0-2.42-1.08-2.42-2.42v-5.61c0-1.34,1.08-2.42,2.42-2.42h40.82     c1.34,0,2.42,1.08,2.42,2.42v5.61C1066.62,1339.75,1065.54,1340.83,1064.2,1340.83z"/><path fill="#fff" d="M1237.92,1297.41H804c-4.21,0-7.63-2.34-7.63-5.23l0,0c0-2.89,3.41-5.23,7.63-5.23h433.92     c4.21,0,7.63,2.34,7.63,5.23l0,0C1245.55,1295.07,1242.14,1297.41,1237.92,1297.41z"/><path fill="#1d9bc2" d="M1108.65,1169.95h-40.64c-1.41,0-2.56-1.15-2.56-2.56v-5.33c0-1.41,1.15-2.56,2.56-2.56h40.63     c1.41,0,2.56,1.15,2.56,2.56v5.33C1111.21,1168.8,1110.06,1169.95,1108.65,1169.95z"/><path fill="#fff" d="M937.93,1213.37H897.3c-1.41,0-2.56-1.15-2.56-2.56v-5.33c0-1.41,1.15-2.56,2.56-2.56h40.63     c1.41,0,2.56,1.15,2.56,2.56v5.33C940.49,1212.22,939.35,1213.37,937.93,1213.37z"/><path fill="#1d9bc2" d="M1196.84,1191.66h-38.09c-1.41,0-2.56-1.15-2.56-2.56v-5.33c0-1.41,1.15-2.56,2.56-2.56h38.09     c1.41,0,2.56,1.15,2.56,2.56v5.33C1199.4,1190.51,1198.25,1191.66,1196.84,1191.66z"/><path fill="#fff" d="M1008.92,1126.52H749.46c-1.41,0-2.56-1.15-2.56-2.56v-5.33c0-1.41,1.15-2.56,2.56-2.56h259.45     c1.42,0,2.56,1.15,2.56,2.56v5.33C1011.48,1125.37,1010.33,1126.52,1008.92,1126.52z"/><path fill="#fff" d="M675.7,1106.42h-71.73c-1.41,0-2.56-1.15-2.56-2.56v-5.33c0-1.41,1.15-2.56,2.56-2.56h71.73     c1.41,0,2.56,1.15,2.56,2.56v5.33C678.27,1105.27,677.12,1106.42,675.7,1106.42z"/><path fill="#f7f081" d="M1113.37,1062.59h-44.8c-1.4,0-2.53-1.13-2.53-2.53v-5.39c0-1.4,1.13-2.53,2.53-2.53h44.8     c1.4,0,2.53,1.13,2.53,2.53v5.39C1115.9,1061.46,1114.77,1062.59,1113.37,1062.59z"/><path fill="#2bb99b" d="M1241.85,997.85h-44.8c-1.4,0-2.53-1.13-2.53-2.53v-5.39c0-1.4,1.13-2.53,2.53-2.53h44.8     c1.4,0,2.53,1.13,2.53,2.53v5.39C1244.38,996.72,1243.24,997.85,1241.85,997.85z"/><path fill="#f48e8e" d="M1245.34,1062.59h-116.9c-1.41,0-2.56-1.15-2.56-2.56v-5.33c0-1.41,1.15-2.56,2.56-2.56h116.9     c1.41,0,2.56,1.15,2.56,2.56v5.33C1247.9,1061.44,1246.75,1062.59,1245.34,1062.59z"/><path fill="#f48e8e" d="M1042.94,1062.59H786.42c-1.41,0-2.56-1.15-2.56-2.56v-5.33c0-1.41,1.15-2.56,2.56-2.56h256.52     c1.41,0,2.56,1.15,2.56,2.56v5.33C1045.5,1061.44,1044.36,1062.59,1042.94,1062.59z"/><path fill="#fff" d="M923.27,1083.5H652.08c-1.42,0-2.56-1.15-2.56-2.56v-5.33c0-1.41,1.15-2.56,2.56-2.56h271.19     c1.41,0,2.56,1.15,2.56,2.56v5.33C925.83,1082.35,924.68,1083.5,923.27,1083.5z"/><path fill="#f48e8e" d="M898.04,1041.68h-90.5c-1.42,0-2.56-1.15-2.56-2.56v-5.33c0-1.41,1.15-2.56,2.56-2.56h90.5     c1.41,0,2.56,1.15,2.56,2.56v5.33C900.6,1040.54,899.46,1041.68,898.04,1041.68z"/><path fill="#f48e8e" d="M1000.12,997.85H700.19c-1.41,0-2.56-1.15-2.56-2.56v-5.33c0-1.41,1.15-2.56,2.56-2.56h299.93     c1.41,0,2.56,1.15,2.56,2.56v5.33C1002.68,996.71,1001.53,997.85,1000.12,997.85z"/><path fill="#fff" d="M1128.59,997.85h-94.61c-1.42,0-2.56-1.15-2.56-2.56v-5.33c0-1.41,1.15-2.56,2.56-2.56h94.61     c1.41,0,2.56,1.15,2.56,2.56v5.33C1131.15,996.71,1130.01,997.85,1128.59,997.85z"/></g><g><path fill="#e75669" d="M616.76,1684.21v-11.74h-343.2c-17.64,0-31.94,16.82-31.94,37.58v0.23c0,20.75,14.3,37.58,31.94,37.58     h343.2v-11.74C606.08,1709.63,616.76,1684.21,616.76,1684.21z"/><path fill="#c94f64" d="M348.63,1672.47h24.81c-10.23,7.06-17.23,21.22-17.23,37.56v0.26c0,16.35,7,30.51,17.23,37.56h-24.81     c-17.64,0-31.94-16.82-31.94-37.58v-0.23C316.7,1689.29,331,1672.47,348.63,1672.47z" opacity=".46"/><path fill="#bc3d5c" d="M616.76,1672.47h-168.3c-14.1,0-25.54,13.45-25.54,30.05v15.3c0,16.59,11.43,30.05,25.54,30.05h168.3     v-11.74c-10.68-26.49,0-51.91,0-51.91V1672.47z"/><path fill="#edf0ee" d="M450.25,1684.21c-9.71,0-17.58,9.26-17.58,20.69v10.53c0,11.43,7.87,20.69,17.58,20.69h166.5     c-9.34-25.96,0-51.91,0-51.91H450.25z"/><path fill="#dde0dd" d="M616.76,1684.21h-166.5c-9.71,0-17.58,9.26-17.58,20.69v5.27l179.94,0     C612.8,1695.28,616.76,1684.21,616.76,1684.21z" opacity=".83"/><g><path fill="#f89e1b" d="M249.85,1623.71v-8.99h359.22c18.46,0,33.43,12.89,33.43,28.79v0.18c0,15.9-14.97,28.78-33.43,28.78H249.85     v-8.99C261.03,1643.19,249.85,1623.71,249.85,1623.71z"/><path fill="#cf7a28" d="M249.85,1614.72h176.16c14.76,0,26.73,10.3,26.73,23.02v11.72c0,12.71-11.97,23.02-26.73,23.02H249.85     v-8.99c11.18-20.29,0-39.77,0-39.77V1614.72z"/><path fill="#edf0ee" d="M424.12,1623.71c10.16,0,18.4,7.1,18.4,15.85v8.07c0,8.75-8.24,15.85-18.4,15.85H249.85     c9.78-19.88,0-39.77,0-39.77H424.12z"/><path fill="#dde0dd" d="M249.85,1623.71h174.27c10.16,0,18.4,7.1,18.4,15.85v4.03H254.19     C253.99,1632.19,249.85,1623.71,249.85,1623.71z" opacity=".83"/><path fill="#a01d3b" d="M418.47,1637.74c0,0-1.77,1.91-1.99,6.29c-0.22,4.38-2.66,9.53-2.66,9.53l-5.75-4.95l-6.2,4.95     c0,0,1.99-6.1,1.99-9.34c0-3.24,3.1-6.48,3.1-6.48H418.47z"/></g><g><path fill="#0ea954" d="M266.85,1573.91v-7.59h303.29c15.59,0,28.22,10.88,28.22,24.3v0.15c0,13.42-12.64,24.3-28.22,24.3H266.85     v-7.59C276.29,1590.35,266.85,1573.91,266.85,1573.91z"/><path fill="#009748" d="M266.85,1566.32h148.73c12.46,0,22.57,8.7,22.57,19.43v9.89c0,10.73-10.1,19.43-22.57,19.43H266.85v-7.59     c9.44-17.13,0-33.58,0-33.58V1566.32z"/><path fill="#edf0ee" d="M413.99,1573.91c8.58,0,15.54,5.99,15.54,13.38v6.81c0,7.39-6.96,13.38-15.54,13.38H266.85     c8.26-16.79,0-33.58,0-33.58H413.99z"/><path fill="#dde0dd" d="M266.85,1573.91h147.14c8.58,0,15.54,5.99,15.54,13.38v3.41H270.51     C270.35,1581.07,266.85,1573.91,266.85,1573.91z" opacity=".83"/><path fill="#253d95" d="M409.22,1585.75c0,0-1.5,1.61-1.68,5.31c-0.19,3.7-2.24,8.04-2.24,8.04l-4.86-4.18l-5.23,4.18     c0,0,1.68-5.15,1.68-7.88c0-2.74,2.62-5.47,2.62-5.47H409.22z"/></g></g><g><path fill="#75bdfb" d="M735.62,641.32H524c-8.63,0-15.63,7-15.63,15.63v96.19c0,8.63,7,15.63,15.63,15.63h63.73v38.48l50.72-38.48    h97.17c8.63,0,15.63-7,15.63-15.63v-96.19C751.25,648.32,744.25,641.32,735.62,641.32z"/><path fill="#fff" d="M611.5,722.86c-2.07,1.07-6.63,2.14-12.4,2.14c-15.26,0-24.52-9.55-24.52-24.17     c0-15.83,10.98-25.38,25.66-25.38c5.77,0,9.91,1.21,11.69,2.14l-1.92,6.99c-2.28-1-5.42-1.85-9.41-1.85     c-9.76,0-16.82,6.13-16.82,17.68c0,10.55,6.2,17.32,16.75,17.32c3.56,0,7.27-0.71,9.55-1.78L611.5,722.86z"/><path fill="#fff" d="M618.76,714.73c2.85,1.64,7.13,3.07,11.62,3.07c5.63,0,8.77-2.64,8.77-6.56c0-3.64-2.42-5.77-8.56-7.98     c-7.91-2.85-12.97-7.06-12.97-13.97c0-7.84,6.56-13.83,16.97-13.83c5.2,0,9.05,1.14,11.55,2.42l-2.14,7.06     c-1.71-0.93-5.06-2.28-9.55-2.28c-5.56,0-7.98,2.99-7.98,5.77c0,3.71,2.78,5.42,9.2,7.91c8.34,3.14,12.4,7.34,12.4,14.26     c0,7.7-5.84,14.4-18.25,14.4c-5.06,0-10.34-1.43-12.97-2.99L618.76,714.73z"/><path fill="#fff" d="M655.75,714.73c2.85,1.64,7.13,3.07,11.62,3.07c5.63,0,8.77-2.64,8.77-6.56c0-3.64-2.42-5.77-8.56-7.98     c-7.91-2.85-12.97-7.06-12.97-13.97c0-7.84,6.56-13.83,16.97-13.83c5.2,0,9.05,1.14,11.55,2.42l-2.14,7.06     c-1.71-0.93-5.06-2.28-9.55-2.28c-5.56,0-7.98,2.99-7.98,5.77c0,3.71,2.78,5.42,9.2,7.91c8.34,3.14,12.4,7.34,12.4,14.26     c0,7.7-5.84,14.4-18.25,14.4c-5.06,0-10.34-1.43-12.97-2.99L655.75,714.73z"/></g><g><path fill="#75bdfb" d="M1755.53,888.18h-266.41c-10.87,0-19.68,8.81-19.68,19.68v121.1c0,10.87,8.81,19.68,19.68,19.68h80.23v48.44    l63.85-48.44h122.34c10.87,0,19.68-8.81,19.68-19.68v-121.1C1775.21,896.99,1766.4,888.18,1755.53,888.18z"/><path fill="#fff" d="M1550.58,945.19c3.77-0.63,8.71-1.17,14.99-1.17c7.72,0,13.37,1.79,16.96,5.03     c3.32,2.87,5.29,7.27,5.29,12.65c0,5.47-1.61,9.78-4.67,12.92c-4.13,4.4-10.86,6.64-18.49,6.64c-2.33,0-4.49-0.09-6.28-0.54     v24.23h-7.81V945.19z M1558.39,974.36c1.7,0.45,3.86,0.63,6.46,0.63c9.43,0,15.17-4.58,15.17-12.93     c0-7.99-5.65-11.85-14.27-11.85c-3.41,0-6.01,0.27-7.36,0.63V974.36z"/><path fill="#fff" d="M1606.13,944.48v25.31h29.26v-25.31h7.9v60.49h-7.9v-28.36h-29.26v28.36h-7.81v-60.49H1606.13z"/><path fill="#fff" d="M1656.82,945.19c3.77-0.63,8.71-1.17,14.99-1.17c7.72,0,13.37,1.79,16.96,5.03     c3.32,2.87,5.29,7.27,5.29,12.65c0,5.47-1.61,9.78-4.67,12.92c-4.13,4.4-10.86,6.64-18.49,6.64c-2.33,0-4.49-0.09-6.28-0.54     v24.23h-7.81V945.19z M1664.63,974.36c1.7,0.45,3.86,0.63,6.46,0.63c9.43,0,15.17-4.58,15.17-12.93     c0-7.99-5.65-11.85-14.27-11.85c-3.41,0-6.01,0.27-7.36,0.63V974.36z"/></g><g><path fill="#75bdfb" d="M1193.65,681.32h-141.56c-5.77,0-10.46,4.68-10.46,10.46v64.35c0,5.77,4.68,10.46,10.46,10.46h42.63v25.74    l33.93-25.74h65c5.77,0,10.46-4.68,10.46-10.46v-64.35C1204.1,686,1199.42,681.32,1193.65,681.32z"/><path fill="#fff" d="M1071.52,704.67v13.45h15.55v-13.45h4.2v32.14h-4.2v-15.07h-15.55v15.07h-4.15v-32.14H1071.52z"/><path fill="#fff" d="M1104.56,708.2h-9.78v-3.53h23.8v3.53h-9.82v28.61h-4.2V708.2z"/><path fill="#fff" d="M1149.23,722.7c-0.24-4.48-0.52-9.87-0.48-13.88h-0.14c-1.1,3.77-2.43,7.77-4.05,12.21l-5.68,15.59h-3.15     l-5.2-15.31c-1.53-4.53-2.81-8.68-3.72-12.49h-0.1c-0.1,4.01-0.33,9.4-0.62,14.21l-0.86,13.78h-3.96l2.24-32.14h5.29l5.48,15.55     c1.34,3.96,2.43,7.49,3.24,10.83h0.14c0.81-3.24,1.96-6.77,3.39-10.83l5.72-15.55h5.29l2,32.14h-4.05L1149.23,722.7z"/><path fill="#fff" d="M1160.48,704.67h4.15v28.66h13.73v3.48h-17.88V704.67z"/></g><g><path fill="#3c9ef1" d="M1399.4,809.05h-141.75c-5.24,0-9.48,4.25-9.48,9.49v99.03c0,5.24,4.25,9.49,9.48,9.49h141.75    c5.24,0,9.49-4.25,9.49-9.49v-99.03C1408.88,813.3,1404.64,809.05,1399.4,809.05z"/><path fill="#fff" d="M1295.63,865.16c6.14-0.09,6.84-3.42,6.84-6.23c0-2.28-0.26-4.65-0.53-7.02c-0.35-2.46-0.61-4.82-0.61-7.11     c0-8.25,5.27-11.76,13.07-11.76h2.54v6.32h-1.58c-4.56,0-6.14,2.54-6.14,6.84c0,1.75,0.26,3.6,0.61,5.53     c0.18,1.93,0.53,4.03,0.53,6.32c0.09,6.14-2.54,8.77-7.02,9.83v0.18c4.48,1.05,7.11,3.77,7.02,9.91c0,2.37-0.35,4.47-0.53,6.4     c-0.35,1.93-0.61,3.77-0.61,5.53c0,4.38,1.75,6.93,6.14,6.93h1.58v6.23h-2.54c-7.63,0-13.07-3.16-13.07-12.02     c0-2.19,0.26-4.65,0.61-7.02c0.26-2.37,0.53-4.65,0.53-6.93c0-2.54-0.7-6.14-6.84-6.23V865.16z"/><path fill="#fff" d="M1361.42,870.86c-6.05,0.09-6.84,3.69-6.84,6.23c0,2.28,0.35,4.56,0.61,6.93c0.26,2.37,0.61,4.83,0.61,7.02     c0,8.86-5.44,12.02-13.07,12.02h-2.55v-6.23h1.58c4.39-0.09,6.05-2.55,6.05-6.93c0-1.76-0.26-3.6-0.53-5.53     c-0.26-1.93-0.53-4.04-0.53-6.4c-0.09-6.14,2.54-8.86,6.93-9.91v-0.18c-4.39-1.05-7.02-3.69-6.93-9.83     c0-2.28,0.26-4.39,0.53-6.32c0.26-1.93,0.53-3.77,0.53-5.53c0-4.3-1.58-6.75-6.05-6.84h-1.58v-6.32h2.55     c7.81,0,13.07,3.51,13.07,11.76c0,2.28-0.35,4.65-0.61,7.11c-0.26,2.37-0.61,4.74-0.61,7.02c0,2.81,0.79,6.14,6.84,6.23V870.86z"/></g><g><rect width="154.49" height="114.52" x="239.45" y="792.34" fill="#b0dfe2"/><rect width="150.93" height="109.62" x="239.45" y="792.34" fill="#fff"/><path fill="#2d4c9d" d="M263.89,848.64l34.39-16.69v6.53L271,851.18v0.15l27.28,12.77v6.46l-34.39-16.69V848.64z"/><path fill="#2d4c9d" d="M303.27,873.45l17.7-52.6h6.24l-17.7,52.6H303.27z"/><path fill="#2d4c9d" d="M365.95,854.01l-34.39,16.54v-6.46l27.72-12.77v-0.15l-27.72-12.77v-6.46l34.39,16.54V854.01z"/></g><g><rect width="158.5" height="10.18" x="1450.35" y="1654.43" fill="#a5c0d7" transform="rotate(90 1529.597 1659.519)"/><rect width="158.5" height="3.72" x="1447.12" y="1657.66" fill="#8394b4" transform="rotate(90 1526.367 1659.519)"/><polygon fill="#8394b4" points="1535.17 1620.76 1543.26 1582.64 1515.93 1582.64 1524.02 1620.76"/><polygon fill="#a5c0d7" points="1472.38 1747.74 1586.82 1747.74 1586.82 1744.61 1540.85 1736.94 1518.35 1736.94 1472.38 1744.61"/><polygon fill="#a5c0d7" points="1515.67 1737.81 1543.53 1737.81 1538.35 1705.3 1520.84 1705.3"/><polygon fill="#8394b4" points="1538.35 1705.3 1520.84 1705.3 1515.67 1737.81 1472.38 1744.61 1548.67 1744.61 1535.17 1738.77 1531.53 1708.18"/><rect width="19.79" height="29.68" x="1554.09" y="1530.75" fill="#8394b4" transform="rotate(-180 1563.982 1545.594)"/><path fill="#3d4359" d="M1456.03,1573.51h147.13l0,0c0-7.94-6.44-14.39-14.39-14.39h-118.35      C1462.48,1559.12,1456.03,1565.56,1456.03,1573.51L1456.03,1573.51z"/><path fill="#323749" d="M1470.42,1559.12h61.87c-7.95,0-14.39,6.44-14.39,14.39h-61.87      C1456.03,1565.56,1462.48,1559.12,1470.42,1559.12z"/><path fill="#323749" d="M1602.93,1570.99c0.14,0.82,0.23,1.66,0.23,2.52h-147.13c0-0.86,0.09-1.7,0.23-2.52H1602.93z"/><rect width="158.64" height="19.42" x="1450.28" y="1572.93" fill="#3d4359" transform="rotate(-180 1529.597 1582.643)"/><rect width="102.52" height="19.42" x="1450.28" y="1572.93" fill="#323749" transform="rotate(-180 1501.538 1582.643)"/><rect width="158.64" height="2.34" x="1450.28" y="1572.93" fill="#323749" transform="rotate(-180 1529.597 1574.102)"/><path fill="#323749" d="M1551.79,1613.41c7.2,0,21.49-4.9,23.31-5.53c0.44-0.16,0.68-0.64,0.52-1.08      c-0.15-0.44-0.63-0.69-1.08-0.52c-5.55,1.94-20.86,6.62-24.88,5.18c-3.34-1.21-3.74-12.83-3.21-19.86      c0.04-0.47-0.31-0.88-0.78-0.91c-0.02-0.01-0.05-0.01-0.07-0.01c-0.44,0-0.81,0.34-0.85,0.78c-0.15,1.99-1.31,19.54,4.32,21.59      C1549.79,1613.3,1550.71,1613.41,1551.79,1613.41z"/><path fill="#323749" d="M1579.37,1600.43c-3.71,0.98-9.19,4.93-8.43,7.81c0.76,2.88,7.48,3.6,11.18,2.62      c3.71-0.98,6.09-4.11,5.33-6.99C1586.69,1600.99,1583.07,1599.45,1579.37,1600.43z"/><path fill="#323749" d="M1501.25,1451.71c0,64.81,29.57,90.38,66.04,90.38s66.04-25.57,66.04-90.38       c0-64.81-29.57-144.31-66.04-144.31S1501.25,1386.9,1501.25,1451.71z"/><path fill="#3d4359" d="M1494.63,1450.81c0,62.65,28.59,87.37,63.85,87.37c35.26,0,63.85-24.72,63.85-87.37       c0-62.65-28.59-139.51-63.85-139.51C1523.21,1311.3,1494.63,1388.16,1494.63,1450.81z"/><g><polygon fill="#d0d1e9" points="1316.48 1747.86 1327.21 1747.86 1297.16 1489.52 1286.43 1489.52"/><polygon fill="#a7a7d3" points="1319.26 1747.86 1329.99 1747.86 1299.95 1489.52 1289.22 1489.52"/></g><g><polygon fill="#fbcebf" points="1422.92 1719.49 1424.31 1730.32 1437.56 1731.59 1437.46 1719.26"/><path fill="#19232d" d="M1440.89,1746.73c-0.01,0.66-0.54,1.15-1.17,1.13l-41.38-1.56c0,0-0.12-8.36,4.75-8.54        c6.1-0.23,13.19-4.01,17.9-7.95c3.54-2.96,17.17-1.9,18.76,0.71C1441.06,1732.67,1440.96,1743.18,1440.89,1746.73z"/><polygon fill="#fbcebf" points="1322.09 1718.29 1319.67 1729.2 1332.81 1731.36 1336.61 1719.05"/><path fill="#19232d" d="M1335.19,1746.69c-0.05,0.66-0.61,1.11-1.24,1.05l-41.2-4.37c0,0,0.4-8.35,5.27-8.2        c6.1,0.19,13.41-3.11,18.35-6.72c3.72-2.72,17.25-0.73,18.67,1.98C1336.23,1732.68,1335.48,1743.15,1335.19,1746.69z"/><path fill="#1a3438" d="M1438,1495.4c41.02-7.62,61.99,0.13,62.31,56.45l-154.9,0.49c0,0,1.21-28.61,13.6-38.14        C1365.36,1509.32,1410.24,1500.09,1438,1495.4z"/><path fill="#192d30" d="M1452.9,1522.86c0,0-15.83,6.19-39.86,10.11c-24.03,3.93-34.81,4.25-37.3,8.6        c-2.5,4.35,0.61,46.28-3.15,65.13c-3.24,16.27-36.69,97.27-44.43,120.64h7.8c0,0,47.48-96.83,51.42-126.85        c1.96-19.69,2.91-36.63,2.91-36.63h50.92C1451.01,1561.3,1452.9,1522.86,1452.9,1522.86z"/><path fill="#223a3f" d="M1560.91,1508.55c1.07,13.53-2.51,33.07-10.14,43.71l-145.98,0.09c0,0-5.95-27.32,5.43-38.14        c12.29-11.69,92.92-17.84,140.97-19.69C1558.57,1494.23,1560.32,1501.14,1560.91,1508.55z"/><path fill="#192d30" d="M1456.77,1595.08c-0.42-16.33-0.97-20.38-4.2-31.22h88.56c12.46-6.06,20.91-35.06,19.78-47.13        l-34.37-8.94c0,0-4.04,21.55-10.8,25.48c-6.76,3.93-81.69,4-84.68,7.16c-3,3.16,9.76,34.16,12.02,56.54        c2.25,22.38-10.89,130.36-10.89,130.36l0.01,0.01h8.28C1440.48,1727.35,1457.55,1625.1,1456.77,1595.08z"/><path fill="#1a3438" d="M1345.87,1549.79c0,0-16.93,108.59-29.06,177.56h19.4c0,0,47.48-96.83,51.42-126.85        c3.95-30.02-0.07-63.03-0.07-63.03L1345.87,1549.79z"/><path fill="#223a3f" d="M1404.79,1552.34c0,0,11.64,106.03,16.29,175h19.4c0,0,17.07-102.24,16.3-132.27        c-0.78-30.02-12.42-57.61-12.42-57.61L1404.79,1552.34z"/><path fill="#192d30" d="M1456.77,1595.08c0-0.02,0-0.03,0-0.05c-0.7-26.81-10.04-51.61-12.02-56.6        c-1.3,0.09-2.53,0.18-3.69,0.27l-10.43,3.92c0.26,8.06,10.45,34.56,12.44,54.35c2.25,22.38-10.89,130.36-10.89,130.36        l0.01,0.01h8.28c0,0,1.07-6.39,2.66-16.44C1447.9,1680.74,1457.36,1617.6,1456.77,1595.08z"/><path fill="#192d30" d="M1387.56,1537.47c-4.4,0.31-8.47,0.97-10.93,3.36c-2.5,4.35-0.04,47.04-3.8,65.89        c-3.24,16.27-36.69,97.27-44.43,120.64h7.8c10.04-24.48,48-100.82,51.42-126.85        C1390.13,1581.49,1391.51,1552.55,1387.56,1537.47z"/><path fill="#efceab" d="M1522.45,1308.31l-4.42-17.41l-29.11,7.46l1.89,20.85C1490.81,1319.22,1508.82,1335.27,1522.45,1308.31z"/><path fill="#faf8f6" d="M1524.57,1500.59c0,0-36.16-1.92-46.33-1.92c0,0-4.86-33.58-4.86-81.6c0-48.02,7.92-103.42,7.92-103.42      l9.22-5.51c0,0,6.38,15.42,11.95,16.58c5.58,1.16,19.13-20.05,19.13-20.05l5.78,3.47L1524.57,1500.59z"/><path fill="#2462c6" d="M1449.35,1328.14c24.61-10.76,35.96,130.74-9.82,130.59c-27.16-0.09-83.12,3.64-83.12,3.64l-0.15-17.05      c0,0,69.08-19.6,69.09-19.6C1435.98,1424.44,1431.76,1335.83,1449.35,1328.14z"/><path fill="#4579d0" d="M1450.73,1327.46c14.54-8.1,30.57-13.81,30.57-13.81s-7.78,123.97-2.99,185.84l-35.21-4.57      c0,0-4.78-69.39-4.18-92.52c-0.06-11.03,3.92-50.19,5.51-65.45C1444.84,1332.98,1447.17,1329.44,1450.73,1327.46z"/><linearGradient id="a" x1="-1175.992" x2="-1156.344" y1="1021.257" y2="1021.257" gradientTransform="matrix(-1.3568 .0369 -.0369 1.5512 -47.455 -139.125)" gradientUnits="userSpaceOnUse"><stop offset="0" stop-color="#f5a0aa"/><stop offset=".215" stop-color="#f38e99"/><stop offset=".731" stop-color="#f06774"/><stop offset="1" stop-color="#ef5866"/></linearGradient><path fill="url(#a)" d="M1512.02,1335.47l-10.29,10.88c0,0-9.92,58.01-1.8,116.56l-6.82,15.14l-10.01-14.78      c0,0-2.64-79.91,11.38-118.08c0,0-4.37-8.22-3.32-15.99l11.62-3.25L1512.02,1335.47z"/><path fill="#d2efff" d="M1481.3,1313.95l9.22-5.69c0,0,6.74,13.55,12.32,14.74c5.58,1.2,18.76-18.33,18.76-18.33l5.78,3.59      l-0.2,9.8c-4.13,7.04-12.39,20.92-14.75,23.28l-9.96-13.69c0,0-17.66,7.26-24.17,11.67      C1479.91,1324,1481.3,1313.95,1481.3,1313.95z"/><g><path fill="#e2a36a" d="M1487.32,1449.28c-13.38-4.12-25.99-6.71-35.45-2.43c-1.28,0.58-8.17,3.38-7.52,6.11       c0.49,2.09,6.4-1,8.97-1.88c3.49-1.19,7.92-1.93,8.13-1.5c0.31,0.63-15.46,4.24-14.04,7.34c1.74,3.79,14.67-4.32,15.24-3.08       c0.57,1.24-12.44,4.31-10.96,6.72c1.35,2.21,12.42-2.95,13.13-2.3c0.71,0.66-8.36,2.42-6.57,4.44       c0.95,1.07,2.33,1.49,8.98,0.25c2.04-0.38,13.31,1.77,18.73-2.14C1491.7,1455.81,1487.32,1449.28,1487.32,1449.28z"/></g><path fill="#4579d0" d="M1481.3,1446.6l0,18.5c-0.97-1.32,24.19,2.02,41.23,2.24c1.03,21.53,2.24,28.69,1.62,38.05      c0,0,13.57,16.09,38.1,10.74c0,0-1.85-36.53-2.45-49.83c0,0,39.31,5.17,39.31-24.01c0-34.7-10.16-71.7-10.16-84.43      c0-12.72-2.39-37.59-40.05-41.63l-21.52-8.1c0,0-7.77,56.67-7.17,97.73c0.18,12.06,0.66,25.07,1.22,37.88l0,0L1481.3,1446.6z       M1554.87,1417.07c6.77-0.36,7.27,17.87,7.37,23.49c0.03,1.71-7.37,2.12-7.37,2.12      C1553.48,1435.93,1554.87,1417.07,1554.87,1417.07z"/></g><g><rect width="62.21" height="6.62" x="1472.45" y="1460.33" fill="#10588d" transform="rotate(-180 1503.559 1463.641)"/><polygon fill="#10588d" points="1477.92 1466.95 1331.33 1466.95 1296.07 1362.94 1442.65 1362.94"/><polygon fill="#95bae2" points="1479.4 1466.95 1334.01 1466.95 1299.03 1362.94 1444.42 1362.94"/><path fill="#fff" d="M1374,1416.92c0,5.68,4.51,10.28,10.08,10.28c5.57,0,10.08-4.6,10.08-10.28c0-5.68-4.51-10.28-10.08-10.28      C1378.52,1406.64,1374,1411.24,1374,1416.92z"/></g><g><polygon fill="#d0d1e9" points="1717.96 1747.86 1728.69 1747.86 1698.65 1489.52 1687.92 1489.52"/><polygon fill="#a7a7d3" points="1720.74 1747.86 1731.47 1747.86 1701.43 1489.52 1690.7 1489.52"/></g><g><polygon fill="#d0d1e9" points="1604.77 1747.86 1594.04 1747.86 1624.09 1489.52 1634.82 1489.52"/><polygon fill="#a7a7d3" points="1601.99 1747.86 1591.26 1747.86 1621.31 1489.52 1632.04 1489.52"/></g><g><polygon fill="#d0d1e9" points="1203.29 1747.86 1192.56 1747.86 1222.61 1489.52 1233.34 1489.52"/><polygon fill="#a7a7d3" points="1200.51 1747.86 1189.78 1747.86 1219.82 1489.52 1230.55 1489.52"/></g><g><path fill="#a7a7d1" d="M1730.89,1489.52h-540.77c-5.6,0-10.14-5.07-10.14-11.33v0c0-6.25,4.54-11.33,10.14-11.33h540.77      c5.6,0,10.14,5.07,10.14,11.33l0,0C1741.04,1484.45,1736.49,1489.52,1730.89,1489.52z"/><path fill="#d0d1e9" d="M1730.89,1466.87h-540.77c-5.6,0-10.14,5.07-10.14,11.33v0c0,1.03,0.13,2.03,0.37,2.98h560.32      c0.23-0.95,0.37-1.95,0.37-2.98C1741.04,1471.94,1736.49,1466.87,1730.89,1466.87z"/></g><g><path fill="#6d97be" d="M1687.5,1457.51h-4.83c-1.5,0-2.71-1.21-2.71-2.69v-18.76c0-1.49,1.22-2.69,2.71-2.69h4.83           c6.7,0,12.15,5.42,12.15,12.07C1699.65,1452.09,1694.2,1457.51,1687.5,1457.51z M1683.38,1454.11h4.12           c4.82,0,8.74-3.89,8.74-8.68c0-4.79-3.92-8.68-8.74-8.68h-4.12V1454.11z"/><path fill="#95bae2" d="M1677.12,1466.87h-16.33c-5.15,0-9.32-4.17-9.32-9.32v-32.43h34.97v32.43       C1686.44,1462.7,1682.26,1466.87,1677.12,1466.87z"/><path fill="#6d97be" d="M1678.21,1425.12v34.37c0,3.12-2,5.84-5,7.38h2.94c5.68,0,10.29-3.78,10.29-8.45v-33.3H1678.21z"/><path fill="#ccdded" d="M1657.03,1450.46h-0.25c-0.66,0-1.2-0.54-1.2-1.2v-20.29c0-0.66,0.54-1.2,1.2-1.2h0.25       c0.66,0,1.2,0.54,1.2,1.2v20.29C1658.22,1449.92,1657.69,1450.46,1657.03,1450.46z"/><g><path fill="#ccdded" d="M1666.24,1423.29c-0.48,0-0.87-0.39-0.87-0.87v-5.67c-0.09-0.31-0.44-1.24-1.59-1.15l-13.33-0.01       c0,0,0,0,0,0c-0.13,0-1.17-0.03-2.04-0.89c-0.71-0.71-1.07-1.73-1.07-3.05c0-1.19,0.37-2.11,1.09-2.74       c1.04-0.9,2.41-0.82,2.76-0.78l36-0.02c0.42-0.17,2.17-1.04,2.07-3.97c-0.1-3-2.16-3.78-2.6-3.91h-21.96       c-0.48,0-0.87-0.39-0.87-0.87c0-0.48,0.39-0.87,0.87-0.87l22.26,0.02c1.34,0.29,3.91,1.83,4.04,5.57       c0.13,3.75-2.19,5.39-3.43,5.74l-0.23,0.03l-36.25,0.02l-0.06-0.01c0,0-0.91-0.11-1.46,0.37c-0.32,0.28-0.49,0.76-0.49,1.42       c0,2.05,1.15,2.19,1.38,2.2l13.26,0.01c2.17-0.14,3.17,1.64,3.37,2.6l0.02,0.17v5.78       C1667.11,1422.9,1666.73,1423.29,1666.24,1423.29z"/></g></g><g><path fill="#fbddb8" d="M1458.86,1260.75c0,0,3.78,16.84,6.28,25.73c2.51,8.89,7.98,29.31,26.59,27.26     c18.61-2.05,26.29-13.66,31.77-19.28c0,0,16.11-24.62,11.47-29.71c-4.63-5.09-12.61-22.03-30.39-17.02     C1486.81,1252.75,1458.86,1260.75,1458.86,1260.75z"/><path fill="#221e52" d="M1475.53,1227.73c3.64-2.75,7.24-5.57,10.58-8.32c5.64-4.66,12.89-7.06,20.16-6.26     c15.05,1.65,22.71,13.31,22.71,13.31l7.6,4.25c7.6,4.25,9.08,22.92,4.21,34.21c-9.11,21.11-17.96,30.44-17.96,30.44     c-0.75,0.21-0.9-0.37-0.67-1.41c-0.06-4.4-1.61-7.05-1.61-7.05c12.51-6.92,10.51-19.57,4.56-20.11     c-5.95-0.53-7.85,11.03-7.85,11.03l-1.73-3.44c-3.81-9.33-1.43-21.33-1.43-21.33s-0.28,0.25-0.8,0.67     c-0.02,0.05-0.02,0.09-0.04,0.14c0,0-3.33,6.72-10.96,8.58c0,0,0.91-1.3,2.05-3.05c-5.63,2.82-13.38,5.46-22.43,5.26     c0,0,5.7-2.12,9.69-4.99c-5.75,1.07-12.43,1.91-19.82,2.13c-25.37,0.76-32.87-14.42-32.87-14.42     C1451.47,1242.84,1461.95,1238,1475.53,1227.73z"/></g></g></svg>