<svg xmlns="http://www.w3.org/2000/svg" xml:space="preserve" id="location-pin" x="0" y="0" version="1.1" viewBox="0 0 50 50">
  <path d="M24.43 40.153a1 1 0 0 0 1.658 0l9.436-14.018a11.239 11.239 0 0 0 1.725-5.976c0-6.376-5.383-11.564-12-11.564s-12 5.188-12 11.564c0 2.114.599 4.184 1.749 6.012l9.432 13.982zm.82-29.559c5.514 0 10 4.291 10 9.564a9.215 9.215 0 0 1-1.402 4.886l-8.59 12.76-8.584-12.726a9.232 9.232 0 0 1-1.424-4.92c0-5.273 4.486-9.564 10-9.564z"></path>
  <path d="M25.25 25.616c3.135 0 5.686-2.467 5.686-5.5s-2.55-5.5-5.686-5.5-5.686 2.467-5.686 5.5 2.551 5.5 5.686 5.5zm0-9c2.032 0 3.686 1.57 3.686 3.5s-1.653 3.5-3.686 3.5-3.686-1.57-3.686-3.5 1.654-3.5 3.686-3.5z"></path>
</svg>
